<svg width="315" height="104" viewBox="0 0 315 104" version="1.1" xmlns="http://www.w3.org/2000/svg" xmlns:xlink="http://www.w3.org/1999/xlink">
<title>Subtract</title>
<desc>Created using Figma</desc>
<g id="Canvas" transform="translate(468 169)">
<g id="Subtract">
<use xlink:href="#path0_fill" transform="translate(-468 -169)" fill="#F2F2F2"/>
</g>
</g>
<defs>
<path id="path0_fill" fill-rule="evenodd" d="M 36.7031 11.5312C 36.7031 13.125 36.3984 14.625 35.7891 16.0312C 35.1797 17.3906 34.3359 18.5859 33.2578 19.6172C 32.2266 20.6016 31.0078 21.3984 29.6016 22.0078C 28.2422 22.5703 26.7656 22.8516 25.1719 22.8516C 23.5781 22.8516 22.0781 22.5703 20.6719 22.0078C 19.3125 21.3984 18.1172 20.6016 17.0859 19.6172C 16.0547 18.5859 15.2344 17.3906 14.625 16.0312C 14.0625 14.625 13.7812 13.125 13.7812 11.5312C 13.7812 9.9375 14.0625 8.46094 14.625 7.10156C 15.2344 5.69531 16.0547 4.47656 17.0859 3.44531C 18.1172 2.36719 19.3125 1.52344 20.6719 0.914062C 22.0781 0.304688 23.5781 0 25.1719 0C 26.7656 0 28.2422 0.304688 29.6016 0.914062C 31.0078 1.52344 32.2266 2.36719 33.2578 3.44531C 34.3359 4.47656 35.1797 5.69531 35.7891 7.10156C 36.3984 8.46094 36.7031 9.9375 36.7031 11.5312ZM 35.8594 94.2188C 35.9029 94.1718 35.9464 94.1247 35.9899 94.0773L 34.1719 102.656L 54.9141 102.656L 64.6875 56.4609C 65.25 54.6328 65.9062 52.9219 66.6562 51.3281C 67.4062 49.6875 68.25 48.2812 69.1875 47.1094C 70.125 45.8906 71.1562 44.9297 72.2812 44.2266C 73.4062 43.5234 74.625 43.1719 75.9375 43.1719C 79.4062 43.1719 81.1406 45.6328 81.1406 50.5547C 81.1406 52.8516 80.7891 55.5938 80.0859 58.7812C 79.4297 61.9688 78.7031 65.2734 77.9062 68.6953C 77.1094 72.1172 76.3594 75.4688 75.6562 78.75C 75 81.9844 74.6719 84.8203 74.6719 87.2578C 74.6719 89.3203 74.9531 91.3359 75.5156 93.3047C 76.125 95.2266 77.0859 96.9609 78.3984 98.5078C 79.7109 100.008 81.4453 101.227 83.6016 102.164C 85.7578 103.055 88.4297 103.5 91.6172 103.5C 93.5391 103.5 95.625 103.219 97.875 102.656C 100.172 102.094 102.492 100.898 104.836 99.0703C 107.157 97.2498 109.434 94.6559 111.667 91.2886C 111.858 92.2892 112.112 93.219 112.43 94.0781C 113.227 96.2344 114.305 98.0156 115.664 99.4219C 117.07 100.828 118.711 101.859 120.586 102.516C 122.461 103.172 124.477 103.5 126.633 103.5C 127.898 103.5 129.328 103.383 130.922 103.148C 132.562 102.914 134.273 102.469 136.055 101.812C 137.836 101.156 139.664 100.219 141.539 99C 143.461 97.7812 145.312 96.1875 147.094 94.2188C 148.113 93.1209 149.103 91.8847 150.064 90.5099C 150.264 91.8107 150.563 93 150.961 94.0781C 151.758 96.2344 152.836 98.0156 154.195 99.4219C 155.602 100.828 157.242 101.859 159.117 102.516C 160.992 103.172 163.008 103.5 165.164 103.5C 166.43 103.5 167.859 103.383 169.453 103.148C 171.094 102.914 172.805 102.469 174.586 101.812C 176.367 101.156 178.195 100.219 180.07 99C 181.992 97.7812 183.844 96.1875 185.625 94.2188C 185.669 94.1718 185.712 94.1247 185.755 94.0773L 183.938 102.656L 204.68 102.656L 214.453 56.4609C 215.016 54.6328 215.672 52.9219 216.422 51.3281C 217.172 49.6875 218.016 48.2812 218.953 47.1094C 219.891 45.8906 220.922 44.9297 222.047 44.2266C 223.172 43.5234 224.391 43.1719 225.703 43.1719C 229.172 43.1719 230.906 45.6328 230.906 50.5547C 230.906 52.8516 230.555 55.5938 229.852 58.7812C 229.195 61.9688 228.469 65.2734 227.672 68.6953C 226.875 72.1172 226.125 75.4688 225.422 78.75C 224.766 81.9844 224.438 84.8203 224.438 87.2578C 224.438 89.3203 224.719 91.3359 225.281 93.3047C 225.891 95.2266 226.852 96.9609 228.164 98.5078C 229.477 100.008 231.211 101.227 233.367 102.164C 235.523 103.055 238.195 103.5 241.383 103.5C 243.305 103.5 245.391 103.219 247.641 102.656C 249.938 102.094 252.258 100.898 254.602 99.0703C 256.992 97.1953 259.336 94.5 261.633 90.9844L 261.645 90.9662C 261.664 91.0193 261.684 91.0723 261.703 91.125C 262.781 93.9844 264.281 96.3281 266.203 98.1562C 268.172 99.9844 270.516 101.344 273.234 102.234C 276 103.078 279.07 103.5 282.445 103.5C 285.352 103.5 288.141 103.172 290.812 102.516C 293.484 101.859 295.922 100.711 298.125 99.0703C 300.328 97.4297 302.227 95.25 303.82 92.5312C 305.414 89.8125 306.586 86.3672 307.336 82.1953C 306.211 83.2266 304.945 84.2109 303.539 85.1484C 302.133 86.0391 300.68 86.8359 299.18 87.5391C 297.727 88.2422 296.227 88.8047 294.68 89.2266C 293.18 89.6484 291.727 89.8594 290.32 89.8594C 289.055 89.8594 287.883 89.6719 286.805 89.2969C 285.727 88.9219 284.789 88.2891 283.992 87.3984C 283.195 86.4609 282.562 85.2188 282.094 83.6719C 281.625 82.125 281.391 80.2031 281.391 77.9062C 281.391 77.25 281.414 76.5703 281.461 75.8672C 281.555 75.1172 281.648 74.3438 281.742 73.5469C 286.055 73.2656 290.203 72.3047 294.188 70.6641C 298.172 69.0234 301.688 66.8672 304.734 64.1953C 307.828 61.5234 310.289 58.4062 312.117 54.8438C 313.945 51.2344 314.859 47.3438 314.859 43.1719C 314.859 41.3906 314.625 39.6797 314.156 38.0391C 313.734 36.3516 312.914 34.875 311.695 33.6094C 310.523 32.3438 308.906 31.3359 306.844 30.5859C 304.828 29.7891 302.203 29.3906 298.969 29.3906C 294.047 29.3906 289.664 30.2812 285.82 32.0625C 281.977 33.7969 278.625 36.1172 275.766 39.0234C 272.906 41.8828 270.469 45.1406 268.453 48.7969C 266.438 52.4531 264.82 56.1797 263.602 59.9766C 262.383 63.7734 261.492 67.4766 260.93 71.0859C 260.367 74.6953 260.086 77.8828 260.086 80.6484C 260.086 80.9247 260.088 81.1982 260.093 81.4691C 259.997 81.6664 259.901 81.8616 259.805 82.0547C 259.055 83.6016 258.211 84.9375 257.273 86.0625C 256.336 87.1875 255.281 88.0547 254.109 88.6641C 252.938 89.2734 251.578 89.5781 250.031 89.5781C 247.828 89.5781 246.305 89.0156 245.461 87.8906C 244.664 86.7656 244.266 85.3125 244.266 83.5312C 244.266 82.1719 244.43 80.6016 244.758 78.8203C 245.133 76.9922 245.578 75.0234 246.094 72.9141C 246.609 70.8047 247.148 68.6016 247.711 66.3047C 248.32 64.0078 248.883 61.7109 249.398 59.4141C 249.914 57.0703 250.336 54.7969 250.664 52.5938C 251.039 50.3438 251.227 48.2578 251.227 46.3359C 251.227 43.4766 250.828 41.0156 250.031 38.9531C 249.234 36.8906 248.109 35.2031 246.656 33.8906C 245.25 32.5781 243.562 31.6172 241.594 31.0078C 239.625 30.3984 237.492 30.0938 235.195 30.0938C 234.07 30.0938 232.852 30.1875 231.539 30.375C 230.273 30.5625 228.914 30.9375 227.461 31.5C 226.008 32.0625 224.508 32.8828 222.961 33.9609C 221.461 34.9922 219.938 36.375 218.391 38.1094L 219.938 30.6562L 199.195 30.6562L 189.406 76.8516L 189.352 76.8516C 188.789 78.6797 188.062 80.3906 187.172 81.9844C 186.281 83.5312 185.273 84.8672 184.148 85.9922C 183.023 87.1172 181.781 88.0078 180.422 88.6641C 179.109 89.2734 177.75 89.5781 176.344 89.5781C 174.328 89.5781 172.852 89.2031 171.914 88.4531C 170.977 87.6562 170.508 86.25 170.508 84.2344C 170.508 83.4844 170.531 82.7344 170.578 81.9844C 170.672 81.1875 170.836 80.3906 171.07 79.5938L 181.406 30.6562L 160.664 30.6562L 150.891 76.8516L 150.82 76.8516C 150.258 78.6797 149.531 80.3906 148.641 81.9844C 147.75 83.5312 146.742 84.8672 145.617 85.9922C 144.492 87.1172 143.25 88.0078 141.891 88.6641C 140.578 89.2734 139.219 89.5781 137.812 89.5781C 135.797 89.5781 134.32 89.2031 133.383 88.4531C 132.445 87.6562 131.977 86.25 131.977 84.2344C 131.977 83.4844 132 82.7344 132.047 81.9844C 132.141 81.1875 132.305 80.3906 132.539 79.5938L 149.062 1.82812L 127.758 4.71094L 112.359 76.8516C 111.609 78.7266 110.836 80.4609 110.039 82.0547C 109.289 83.6016 108.445 84.9375 107.508 86.0625C 106.57 87.1875 105.516 88.0547 104.344 88.6641C 103.172 89.2734 101.812 89.5781 100.266 89.5781C 98.0625 89.5781 96.5391 89.0156 95.6953 87.8906C 94.8984 86.7656 94.5 85.3125 94.5 83.5312C 94.5 82.1719 94.6641 80.6016 94.9922 78.8203C 95.3672 76.9922 95.8125 75.0234 96.3281 72.9141C 96.8438 70.8047 97.3828 68.6016 97.9453 66.3047C 98.5547 64.0078 99.1172 61.7109 99.6328 59.4141C 100.148 57.0703 100.57 54.7969 100.898 52.5938C 101.273 50.3438 101.461 48.2578 101.461 46.3359C 101.461 43.4766 101.062 41.0156 100.266 38.9531C 99.4688 36.8906 98.3438 35.2031 96.8906 33.8906C 95.4844 32.5781 93.7969 31.6172 91.8281 31.0078C 89.8594 30.3984 87.7266 30.0938 85.4297 30.0938C 84.3047 30.0938 83.0859 30.1875 81.7734 30.375C 80.5078 30.5625 79.1484 30.9375 77.6953 31.5C 76.2422 32.0625 74.7422 32.8828 73.1953 33.9609C 71.6953 34.9922 70.1719 36.375 68.625 38.1094L 70.1719 30.6562L 49.4297 30.6562L 39.6403 76.8516L 39.5859 76.8516C 39.0234 78.6797 38.2969 80.3906 37.4062 81.9844C 36.5156 83.5312 35.5078 84.8672 34.3828 85.9922C 33.2578 87.1172 32.0156 88.0078 30.6562 88.6641C 29.3438 89.2734 27.9844 89.5781 26.5781 89.5781C 24.5625 89.5781 23.0859 89.2031 22.1484 88.4531C 21.2109 87.6562 20.7422 86.25 20.7422 84.2344C 20.7422 83.4844 20.7656 82.7344 20.8125 81.9844C 20.9062 81.1875 21.0703 80.3906 21.3047 79.5938L 31.6406 30.6562L 10.8984 30.6562L 1.125 76.8516C 0.75 78.6797 0.46875 80.3906 0.28125 81.9844C 0.09375 83.5312 0 84.9609 0 86.2734C 0 89.3203 0.398438 91.9219 1.19531 94.0781C 1.99219 96.2344 3.07031 98.0156 4.42969 99.4219C 5.83594 100.828 7.47656 101.859 9.35156 102.516C 11.2266 103.172 13.2422 103.5 15.3984 103.5C 16.6641 103.5 18.0938 103.383 19.6875 103.148C 21.3281 102.914 23.0391 102.469 24.8203 101.812C 26.6016 101.156 28.4297 100.219 30.3047 99C 32.2266 97.7812 34.0781 96.1875 35.8594 94.2188ZM 186.469 11.5312C 186.469 13.125 186.164 14.625 185.555 16.0312C 184.945 17.3906 184.102 18.5859 183.023 19.6172C 181.992 20.6016 180.773 21.3984 179.367 22.0078C 178.008 22.5703 176.531 22.8516 174.938 22.8516C 173.344 22.8516 171.844 22.5703 170.438 22.0078C 169.078 21.3984 167.883 20.6016 166.852 19.6172C 165.82 18.5859 165 17.3906 164.391 16.0312C 163.828 14.625 163.547 13.125 163.547 11.5312C 163.547 9.9375 163.828 8.46094 164.391 7.10156C 165 5.69531 165.82 4.47656 166.852 3.44531C 167.883 2.36719 169.078 1.52344 170.438 0.914062C 171.844 0.304688 173.344 0 174.938 0C 176.531 0 178.008 0.304688 179.367 0.914062C 180.773 1.52344 181.992 2.36719 183.023 3.44531C 184.102 4.47656 184.945 5.69531 185.555 7.10156C 186.164 8.46094 186.469 9.9375 186.469 11.5312ZM 282.727 66.6562C 285.492 66.5625 288.141 65.8359 290.672 64.4766C 293.203 63.0703 295.43 61.2891 297.352 59.1328C 299.32 56.9297 300.867 54.4219 301.992 51.6094C 303.164 48.7969 303.75 45.8906 303.75 42.8906C 303.75 41.1094 303.492 39.6797 302.977 38.6016C 302.461 37.5234 301.523 36.9844 300.164 36.9844C 298.336 36.9844 296.531 37.8984 294.75 39.7266C 293.016 41.5078 291.375 43.8281 289.828 46.6875C 288.328 49.5469 286.945 52.7344 285.68 56.25C 284.461 59.7656 283.477 63.2344 282.727 66.6562ZM 14.1561 38.4087C 14.1562 38.4085 14.1562 38.4084 15.125 38.6562C 16.0938 38.9041 16.0938 38.9041 16.0938 38.9043L 16.0936 38.905L 16.0928 38.9079L 16.0899 38.9194L 16.0781 38.9654L 16.0321 39.1461C 15.9916 39.3051 15.9322 39.5389 15.8561 39.8392C 15.7039 40.4404 15.4855 41.3061 15.2201 42.3675C 14.6892 44.4913 13.9716 47.393 13.2224 50.5146C 11.7237 56.7591 10.1083 63.8383 9.61493 67.2977C 9.39252 68.8545 9.71625 69.8728 10.1882 70.4803C 10.657 71.0839 11.3659 71.4062 12.1875 71.4062C 13.8319 71.4062 15.9802 70.0594 16.6472 66.9467C 17.3986 63.4403 19.0252 56.308 20.463 50.0571C 21.1818 46.9315 21.8539 44.0246 22.3461 41.8994C 22.5922 40.8367 22.7935 39.9693 22.9331 39.3676L 23.0944 38.6731L 23.1366 38.4917L 23.1473 38.4454L 23.1501 38.4337L 23.1508 38.4307L 23.1509 38.43C 23.151 38.4298 23.151 38.4297 24.125 38.6562C 25.099 38.8828 25.099 38.8828 25.0989 38.883L 25.0988 38.8837L 25.0981 38.8867L 25.0954 38.8983L 25.0846 38.9446L 25.0425 39.1257L 24.8813 39.8199C 24.7417 40.4214 24.5406 41.2883 24.2945 42.3506C 23.8024 44.4754 23.1307 47.381 22.412 50.5054C 20.9748 56.7545 19.3514 63.8722 18.6028 67.3658C 17.7698 71.2531 14.9181 73.4062 12.1875 73.4062C 10.8216 73.4062 9.49921 72.8536 8.6087 71.7072C 7.72125 70.5647 7.35745 68.958 7.63504 67.0148C 8.14169 63.4742 9.77631 56.3034 11.2776 50.0479C 12.0284 46.9195 12.7483 44.0087 13.2798 41.8825C 13.5457 40.8189 13.7649 39.9503 13.9173 39.3483C 13.9936 39.0471 14.0533 38.8121 14.0939 38.6527L 14.1403 38.4708L 14.1521 38.4243L 14.1552 38.4125L 14.1559 38.4095L 14.1561 38.4087ZM 164.707 39.6562C 163.738 39.4084 163.738 39.4085 163.738 39.4087L 163.737 39.4095L 163.737 39.4125L 163.734 39.4243L 163.722 39.4708L 163.675 39.6527C 163.635 39.8121 163.575 40.0471 163.499 40.3483C 163.346 40.9503 163.127 41.8189 162.861 42.8825C 162.33 45.0087 161.61 47.9195 160.859 51.0479C 159.358 57.3034 157.723 64.4742 157.217 68.0148C 156.939 69.958 157.303 71.5647 158.19 72.7072C 159.081 73.8536 160.403 74.4062 161.769 74.4062C 164.5 74.4062 167.351 72.2531 168.184 68.3658C 168.933 64.8722 170.556 57.7545 171.994 51.5054C 172.712 48.381 173.384 45.4754 173.876 43.3506C 174.122 42.2883 174.323 41.4214 174.463 40.8199L 174.624 40.1257L 174.666 39.9446L 174.677 39.8983L 174.68 39.8867L 174.68 39.8837L 174.68 39.883C 174.681 39.8828 174.681 39.8828 173.707 39.6562C 172.733 39.4297 172.733 39.4298 172.732 39.43L 172.732 39.4307L 172.732 39.4337L 172.729 39.4454L 172.718 39.4917L 172.676 39.6731L 172.515 40.3676C 172.375 40.9693 172.174 41.8367 171.928 42.8994C 171.435 45.0246 170.763 47.9315 170.044 51.0571C 168.607 57.308 166.98 64.4403 166.229 67.9467C 165.562 71.0594 163.413 72.4062 161.769 72.4062C 160.947 72.4062 160.239 72.0839 159.77 71.4803C 159.298 70.8728 158.974 69.8545 159.196 68.2977C 159.69 64.8383 161.305 57.7591 162.804 51.5146C 163.553 48.393 164.271 45.4913 164.802 43.3675C 165.067 42.3061 165.285 41.4404 165.438 40.8392C 165.514 40.5389 165.573 40.3051 165.614 40.1461L 165.66 39.9654L 165.671 39.9194L 165.674 39.9079L 165.675 39.905L 165.675 39.9043C 165.675 39.9041 165.675 39.9041 164.707 39.6562Z"/>
</defs>
</svg>
